<svg width="121" height="36" viewBox="0 0 121 36" fill="none" xmlns="http://www.w3.org/2000/svg">
<path d="M0.88 35V1.4H7.504V28.376H21.04V35H0.88ZM36.6681 35.624C34.3961 35.624 32.2601 35.176 30.2601 34.28C28.2601 33.368 26.5001 32.112 24.9801 30.512C23.4601 28.912 22.2681 27.064 21.4041 24.968C20.5401 22.856 20.1081 20.6 20.1081 18.2C20.1081 15.8 20.5401 13.552 21.4041 11.456C22.2681 9.344 23.4601 7.488 24.9801 5.888C26.5001 4.288 28.2601 3.04 30.2601 2.144C32.2601 1.232 34.3961 0.775997 36.6681 0.775997C38.9561 0.775997 41.1001 1.232 43.1001 2.144C45.1001 3.04 46.8601 4.288 48.3801 5.888C49.9001 7.488 51.0841 9.344 51.9321 11.456C52.7961 13.552 53.2281 15.8 53.2281 18.2C53.2281 20.6 52.7961 22.856 51.9321 24.968C51.0841 27.064 49.9001 28.912 48.3801 30.512C46.8601 32.112 45.1001 33.368 43.1001 34.28C41.1001 35.176 38.9561 35.624 36.6681 35.624ZM36.6681 29C38.0281 29 39.3081 28.72 40.5081 28.16C41.7081 27.584 42.7641 26.8 43.6761 25.808C44.5881 24.816 45.3001 23.672 45.8121 22.376C46.3401 21.08 46.6041 19.688 46.6041 18.2C46.6041 16.712 46.3401 15.32 45.8121 14.024C45.3001 12.712 44.5881 11.568 43.6761 10.592C42.7641 9.6 41.7081 8.824 40.5081 8.264C39.3081 7.688 38.0281 7.4 36.6681 7.4C35.3081 7.4 34.0281 7.688 32.8281 8.264C31.6281 8.824 30.5721 9.6 29.6601 10.592C28.7481 11.584 28.0281 12.728 27.5001 14.024C26.9881 15.32 26.7321 16.712 26.7321 18.2C26.7321 19.688 26.9881 21.088 27.5001 22.4C28.0281 23.696 28.7481 24.84 29.6601 25.832C30.5721 26.808 31.6281 27.584 32.8281 28.16C34.0281 28.72 35.3081 29 36.6681 29ZM70.4489 35.624C68.1129 35.624 65.9369 35.168 63.9209 34.256C61.9209 33.344 60.1689 32.088 58.6649 30.488C57.1769 28.872 56.0169 27.008 55.1849 24.896C54.3529 22.784 53.9369 20.536 53.9369 18.152C53.9369 15.592 54.3929 13.256 55.3049 11.144C56.2169 9.032 57.4569 7.208 59.0249 5.672C60.5929 4.12 62.3689 2.928 64.3529 2.096C66.3529 1.248 68.4329 0.823999 70.5929 0.823999C72.9609 0.823999 75.2809 1.376 77.5529 2.48C79.8249 3.584 81.8569 5.336 83.6489 7.736L77.7449 10.904C76.7209 9.72 75.5769 8.84 74.3129 8.264C73.0649 7.688 71.7929 7.4 70.4969 7.4C69.2009 7.4 67.9529 7.664 66.7529 8.192C65.5689 8.72 64.5129 9.472 63.5849 10.448C62.6569 11.424 61.9209 12.576 61.3769 13.904C60.8329 15.232 60.5609 16.696 60.5609 18.296C60.5609 19.784 60.8169 21.176 61.3289 22.472C61.8569 23.768 62.5769 24.904 63.4889 25.88C64.4009 26.856 65.4569 27.624 66.6569 28.184C67.8729 28.728 69.1689 29 70.5449 29C71.3929 29 72.2249 28.88 73.0409 28.64C73.8729 28.384 74.6649 28.016 75.4169 27.536C76.1689 27.056 76.8569 26.456 77.4809 25.736C78.1209 25.016 78.6809 24.184 79.1609 23.24H73.9529V17.48H86.9609C87.0569 19.96 86.6969 22.296 85.8809 24.488C85.0649 26.68 83.8969 28.616 82.3769 30.296C80.8569 31.96 79.0809 33.264 77.0489 34.208C75.0169 35.152 72.8169 35.624 70.4489 35.624ZM104.279 35.624C102.007 35.624 99.8708 35.176 97.8708 34.28C95.8708 33.368 94.1108 32.112 92.5908 30.512C91.0708 28.912 89.8788 27.064 89.0148 24.968C88.1508 22.856 87.7188 20.6 87.7188 18.2C87.7188 15.8 88.1508 13.552 89.0148 11.456C89.8788 9.344 91.0708 7.488 92.5908 5.888C94.1108 4.288 95.8708 3.04 97.8708 2.144C99.8708 1.232 102.007 0.775997 104.279 0.775997C106.567 0.775997 108.711 1.232 110.711 2.144C112.711 3.04 114.471 4.288 115.991 5.888C117.511 7.488 118.695 9.344 119.543 11.456C120.407 13.552 120.839 15.8 120.839 18.2C120.839 20.6 120.407 22.856 119.543 24.968C118.695 27.064 117.511 28.912 115.991 30.512C114.471 32.112 112.711 33.368 110.711 34.28C108.711 35.176 106.567 35.624 104.279 35.624ZM104.279 29C105.639 29 106.919 28.72 108.119 28.16C109.319 27.584 110.375 26.8 111.287 25.808C112.199 24.816 112.911 23.672 113.423 22.376C113.951 21.08 114.215 19.688 114.215 18.2C114.215 16.712 113.951 15.32 113.423 14.024C112.911 12.712 112.199 11.568 111.287 10.592C110.375 9.6 109.319 8.824 108.119 8.264C106.919 7.688 105.639 7.4 104.279 7.4C102.919 7.4 101.639 7.688 100.439 8.264C99.2388 8.824 98.1828 9.6 97.2708 10.592C96.3588 11.584 95.6388 12.728 95.1108 14.024C94.5988 15.32 94.3428 16.712 94.3428 18.2C94.3428 19.688 94.5988 21.088 95.1108 22.4C95.6388 23.696 96.3588 24.84 97.2708 25.832C98.1828 26.808 99.2388 27.584 100.439 28.16C101.639 28.72 102.919 29 104.279 29Z" fill="#0038FF"/>
</svg>
